# xmcd
#
# Track frame offsets: 
#        150
#        21445
#        44470
#        65765
#
# Disc length: 1181 seconds
#
# Revision: 4
# Processed by: cddbd v1.5.2PL0 Copyright (c) Steve Scherf et al.
# Submitted via: ExactAudioCopy v1.0b3
#
DISCID=36049b04
DTITLE=石川智晶 - アンインストール
DYEAR=2007
DGENRE=Anime
TTITLE0=アンインストール
TTITLE1=Little Bird
TTITLE2=アンインストール (without vocal)
TTITLE3=Little Bird (without vocal)
EXTD=
EXTT0=
EXTT1=
EXTT2=
EXTT3=
PLAYORDER=
